<?xml version="1.0" encoding="UTF-8"?>
<svg xmlns="http://www.w3.org/2000/svg" xmlns:xlink="http://www.w3.org/1999/xlink" width="100px" height="97px" viewBox="0 0 99 97" version="1.1">
<g id="surface1">
<path style=" stroke:none;fill-rule:nonzero;fill:rgb(90%,90.137255%,90.411765%);fill-opacity:1;" d="M 98.996094 2.171875 C 98.996094 1.738281 98.761719 1.335938 98.382812 1.125 C 98.003906 0.914062 97.542969 0.921875 97.171875 1.144531 L 49.5 30.164062 L 1.824219 1.144531 C 1.453125 0.917969 0.988281 0.910156 0.613281 1.125 C 0.234375 1.335938 0 1.738281 0 2.171875 L 0 93.929688 C 0 94.566406 0.515625 95.085938 1.15625 95.085938 L 24.515625 95.085938 C 25.152344 95.085938 25.667969 94.566406 25.667969 93.929688 L 25.667969 43.46875 L 48.339844 57.089844 C 48.691406 57.316406 49.085938 57.460938 49.5 57.507812 C 49.914062 57.460938 50.308594 57.316406 50.65625 57.089844 C 50.65625 57.089844 98.0625 28.753906 98.410156 28.542969 C 98.921875 28.238281 99 27.914062 99 27.117188 C 99 26.765625 98.996094 2.171875 98.996094 2.171875 Z M 98.996094 2.171875 "/>
<path style=" stroke:none;fill-rule:nonzero;fill:rgb(97.647059%,68.235294%,0%);fill-opacity:1;" d="M 98.390625 38.824219 C 98.015625 38.613281 97.554688 38.621094 97.183594 38.839844 L 74.167969 52.53125 C 73.601562 52.855469 73.332031 53.171875 73.332031 54.15625 L 73.332031 93.929688 C 73.332031 94.234375 73.453125 94.53125 73.667969 94.746094 C 73.882812 94.960938 74.175781 95.085938 74.480469 95.085938 L 97.84375 95.085938 C 98.484375 95.085938 99 94.566406 99 93.929688 L 99 39.871094 C 99 39.4375 98.765625 39.039062 98.390625 38.824219 "/>
</g>
</svg>
